<svg xmlns="http://www.w3.org/2000/svg" fill="none" viewBox="0 0 48 49">
  <mask id="aGJHr94PBX0Xa" style="mask-type:luminance" maskUnits="userSpaceOnUse" x="0" y="0" width="48" height="49">
    <path d="M48 .804H0v48h48v-48z" fill="#fff"/>
  </mask>
  <g mask="url(#aGJHr94PBX0Xa)">
    <path d="M21.058 1.656a6.135 6.135 0 015.755-.264 6.045 6.045 0 013.402 4.611l-.063.03a9.89 9.89 0 00-.963.495 5.018 5.018 0 00-10.02.17c-.01 1.854.002 3.712-.006 5.568v1.227c.007 1.912 0 3.822.004 5.734.005.41.005.823 0 1.233-.005 1.23-.002 2.461 0 3.69-.355.206-.714.402-1.082.584-.007-1.632-.002-3.26-.002-4.89 0-.412-.002-.822-.005-1.233.009-1.5 0-3.002.005-4.501 0-.415 0-.83.002-1.244-.008-1.91 0-3.818-.005-5.727.001-.374.025-.747.073-1.118a6.052 6.052 0 012.905-4.366v.001zM29.181 8.6c.358-.21.72-.414 1.082-.618a4982.994 4982.994 0 01-.002 6.126v4.525c-.355.202-.71.403-1.067.603-.016-1.916 0-3.832-.009-5.748a45.113 45.113 0 01-.002-1.22c.007-1.222.01-2.446-.002-3.668zm.014 11.867c.358-.201.715-.406 1.07-.613.007 1.911-.003 3.823.005 5.736a8.05 8.05 0 01-.06 1.14 6.086 6.086 0 01-3.178 4.503 4.488 4.488 0 01-2.114.595c-.905-.03-1.848.115-2.712-.22a6.057 6.057 0 01-4.042-4.89 8.835 8.835 0 001.001-.51 5.041 5.041 0 007.157 4.192 4.96 4.96 0 002.864-4.253c.017-1.893.001-3.786.009-5.68z" fill="#003C8F"/>
    <path d="M12.78 6.395a6.098 6.098 0 015.374-.372c-.048.37-.072.744-.072 1.118a5.03 5.03 0 00-7.128 3.436 4.945 4.945 0 001.562 4.728 9.92 9.92 0 001.74 1.12c1.277.724 2.548 1.46 3.824 2.188.002.41.006.821.005 1.232a1072.38 1072.38 0 00-4.994-2.86 9.289 9.289 0 01-.962-.619 5.986 5.986 0 01-2.247-3.655 7.135 7.135 0 01.216-3.068 6.047 6.047 0 012.682-3.248zm7.127.547c1.42.828 2.854 1.629 4.273 2.455.353.205.706.408 1.061.61 1.318.745 2.632 1.5 3.942 2.262-.005.408-.004.813.002 1.22-1.67-.955-3.34-1.912-5.01-2.87-.405-.229-.8-.475-1.21-.697-1.018-.579-2.04-1.152-3.043-1.752a7.986 7.986 0 01-.015-1.228zm10.358 5.928c1.637.958 3.291 1.887 4.935 2.835.33.184.652.386.961.605a5.824 5.824 0 012.344 3.986c-.02.867.114 1.764-.18 2.601a5.983 5.983 0 01-2.908 3.534 6.24 6.24 0 01-5.206.3 8.2 8.2 0 00.06-1.142c.99.477 2.107.624 3.187.42a4.996 4.996 0 003.784-3.234 4.935 4.935 0 00-.918-4.87c-.657-.806-1.622-1.244-2.501-1.76a786.027 786.027 0 00-3.556-2.037c0-.412 0-.825-.002-1.237zm-11.099 6.358c1.664.975 3.348 1.916 5.016 2.883.357.208.715.414 1.074.618.984.552 1.962 1.119 2.945 1.677.107.077.298.13.26.306.012.357-.007.714-.017 1.073-1.416-.825-2.843-1.633-4.264-2.45a94.257 94.257 0 00-1.056-.6c-1.318-.762-2.642-1.512-3.96-2.274.006-.41.006-.824.002-1.233z" fill="#00C8E9"/>
    <path d="M31.206 5.694a6.288 6.288 0 013.82.416 5.946 5.946 0 013.47 4.498c0 .974.134 1.988-.227 2.92a6.12 6.12 0 01-2.02 2.845l-.088-.063c-.31-.218-.63-.42-.96-.606l.099.032a5.04 5.04 0 002.15-3.273c.16-.98.036-1.984-.36-2.895a5.035 5.035 0 00-6.965-2.34c-1.63.919-3.244 1.864-4.876 2.778a100.6 100.6 0 01-1.061-.61c1.666-.962 3.34-1.907 5.007-2.868a9.88 9.88 0 01.963-.495 9.706 9.706 0 011.049-.34l-.001.001zm-8.238 4.228c.41.22.805.468 1.21.697-1.666.97-3.345 1.915-5.014 2.876v-1.227c1.272-.702 2.499-1.48 3.792-2.14l.012-.206zm-9.124 5.386c1.416-.808 2.842-1.602 4.243-2.438 0 .414-.001.829-.003 1.243-1.064.618-2.143 1.214-3.203 1.842a9.92 9.92 0 01-1.037-.647zm-1.717 1.058c.308.226.63.432.962.619a4.95 4.95 0 00-1.778 6.235 5.027 5.027 0 005.948 2.684 10.954 10.954 0 002.268-1.128c1.2-.678 2.381-1.394 3.601-2.04.352.197.704.398 1.056.6l-5.02 2.874a8.821 8.821 0 01-1.002.51 6.199 6.199 0 01-4.917-.136 5.865 5.865 0 01-3.422-5.427 5.763 5.763 0 012.306-4.79h-.002zm18.139 2.266c1.062-.624 2.148-1.21 3.198-1.855.362.201.723.405 1.084.613-1.412.849-2.858 1.64-4.283 2.465-.356.208-.713.413-1.07.613-1.31.758-2.632 1.492-3.933 2.263l-1.075-.619c1.667-.966 3.346-1.91 5.013-2.875.355-.2.71-.402 1.066-.605z" fill="#FFAF89"/>
    <path d="M30.371 35.514c.376.163.724.384 1.03.656-.195.306-.383.613-.575.92-.321-.223-.659-.42-.998-.612.184-.32.365-.64.543-.965zm-19.035 1.114c.36-.312.704-.64 1.07-.946.223.548.321 1.14.287 1.73.004.864 0 1.728 0 2.592a.573.573 0 00.36.542c.071.03.148.044.225.044a4.859 4.859 0 001.492-.157c-.038-.39-.096-.78-.117-1.17.402-.249.819-.47 1.25-.661.067.512.088 1.029.17 1.539a.569.569 0 00.52.413 3.704 3.704 0 001.544-.13c-.053-.4-.086-.804-.126-1.206.423-.205.843-.416 1.263-.626.048.5.087 1 .151 1.499a.559.559 0 00.49.454c.532.092 1.08.05 1.59-.125a8.666 8.666 0 00-.556-1.621c.389-.302.77-.614 1.166-.907a5.95 5.95 0 01.523 2.397 3.673 3.673 0 01-.637 1.4 2.1 2.1 0 01-1.39.504c-.675.058-1.501.007-1.91-.615-.28.482-.896.539-1.397.608-.687.066-1.534.031-1.958-.602-.284.448-.858.528-1.344.595-.577.1-1.17.033-1.712-.19a1.636 1.636 0 01-.715-1.404c-.042-1.32.093-2.664-.24-3.957zm25.82.012a35.64 35.64 0 011.073-.958c.348.692.259 1.483.27 2.23-.01 1.331.024 2.663-.024 3.992-.31.18-.63.343-.95.501-.01-1.138-.072-2.274-.109-3.412a10.964 10.964 0 00-.26-2.352zm-1.746-.72c.449.162.858.417 1.202.748-.23.353-.448.713-.672 1.073-.375-.259-.768-.488-1.159-.72.208-.368.43-.729.629-1.102z" fill="#003C8F"/>
    <path d="M18.246 36.386c.435.182.836.435 1.187.749-.22.363-.45.72-.665 1.085-.38-.252-.768-.495-1.166-.718.211-.374.432-.742.644-1.116zm11.604.469c.376.168.73.38 1.056.634.12-.21.24-.418.357-.63a4.12 4.12 0 011.196.748l-.66 1.08a16.83 16.83 0 00-1.03-.633c-.128.214-.26.426-.399.634a13.406 13.406 0 00-1.167-.714c.214-.374.43-.747.647-1.119zm10.482 1.915c.158-.482.324-.96.482-1.443.925.49 1.798 1.293 1.966 2.367a2.499 2.499 0 01-.543 1.95 2.632 2.632 0 01-1.98.558c-.453-.029-1.043-.122-1.218-.608a5.19 5.19 0 01.054-1.898c.28.019.56.048.838.086.017.243-.166.666.175.752a3.992 3.992 0 001.726-.106 3.188 3.188 0 00-1.5-1.659zM7.81 37.563c.433.183.833.435 1.184.749-.226.36-.446.725-.678 1.082-.368-.262-.76-.489-1.152-.718.209-.375.426-.744.645-1.113z" fill="#003C8F"/>
    <path d="M35.21 38.798c.393-.3.769-.618 1.17-.904.351.78.523 1.628.505 2.483a3.572 3.572 0 01-.725 1.427c-.489.289-1.05.43-1.618.407a2.056 2.056 0 01-1.534-.523 1.446 1.446 0 01-2.124.116 1.641 1.641 0 01-1.6.34 3.489 3.489 0 01-.492 1.097 3.184 3.184 0 01-1.482.666 4.205 4.205 0 01-2.663-.158 1.513 1.513 0 01-.816-1.06 5.117 5.117 0 01.48-3.044c.298.087.593.184.886.291a3.786 3.786 0 00-.288 1.943c.07.373.496.448.81.504a5.662 5.662 0 002.425-.283 16.89 16.89 0 00-.423-2.489c.4-.246.806-.485 1.213-.723.116.456.184.927.336 1.374.166.518 1.2.444 1.172-.148.032-.294.047-.589.082-.883h1.008c.002.425.002.85 0 1.274.283.092.585.107.876.042-.042-.454-.092-.904-.132-1.36.417-.209.837-.415 1.255-.624.059.509.09 1.02.155 1.528a.58.58 0 00.541.475 3.049 3.049 0 001.54-.146 9.17 9.17 0 00-.556-1.622zm-25.765.359c.386-.272.786-.521 1.2-.748a9.63 9.63 0 01.425 2.68 2.989 2.989 0 01-.456 1.512 1.492 1.492 0 01-.818.596 5.489 5.489 0 01-2.522.346c-.672-.08-1.422-.38-1.654-1.07a4.668 4.668 0 01.412-3.313c.291.1.583.197.873.298-.207.674-.495 1.43-.216 2.122a1.43 1.43 0 001 .352 5.921 5.921 0 002.159-.312 18.814 18.814 0 00-.403-2.463zm4.788 3.53c.387.148.745.36 1.06.63.12-.215.246-.426.378-.632.434.18.83.437 1.17.76-.227.35-.433.71-.658 1.061a9.276 9.276 0 00-1.032-.635c-.127.212-.255.422-.381.634-.384-.254-.782-.483-1.176-.717.213-.365.43-.73.64-1.101zm6.327.003c.442.17.848.424 1.193.749-.224.355-.44.714-.657 1.073-.378-.264-.777-.49-1.174-.72.216-.365.43-.73.637-1.102zM8.492 45.632c.11-.107.228-.205.354-.292.078.534.107 1.074.088 1.613.003.172-.029.399.154.5.253.03.51.022.76-.027l-.032-.618.345-.16c.048.245-.012.545.157.75.257.156.572.047.85.02a47.937 47.937 0 00-.04-.595c.116-.063.232-.126.35-.188.064.26-.037.64.231.803.411.076.834.056 1.236-.058a7.264 7.264 0 00-.235-.7l.35-.26c.139.392.318.867.056 1.249-.144.248-.465.265-.72.28a1.541 1.541 0 01-1.057-.19 1.146 1.146 0 01-1.31-.005c-.399.279-1.235.36-1.404-.213a13.347 13.347 0 00-.133-1.91zm11 .012c.116-.075.192-.315.354-.252.106.845.128 1.698.066 2.548-.093.02-.185.042-.276.064.01-.789-.039-1.578-.144-2.36zm5.398-.009c.11-.11.22-.218.332-.324.096.642.136 1.292.12 1.94.07.317.466.206.7.216a.953.953 0 01.155-.84c-.065-.182.065-.349.121-.515.4.2.775.445 1.118.733a.773.773 0 01-.115 1.18c-.281-.004-.518-.195-.788-.232-.374.15-.784.19-1.18.117a.549.549 0 01-.352-.554 8.375 8.375 0 00-.11-1.72zm1.382 1.488c.088.14.299.298.426.106.203-.152-.024-.346-.116-.484a.55.55 0 00-.31.38m.808-.074c-.053.155-.105.309-.154.463.133.048.266.092.4.137.081-.25-.081-.44-.247-.6zm4.837-1.308c.412-.136.834-.252 1.251-.377l-.1.438a72.58 72.58 0 01-1.042.325c.31.235.568.53.759.867a.634.634 0 01-.464.889c-.446.058-.997.19-1.361-.157a3.624 3.624 0 01-1.823.261c-.253-.024-.591-.068-.691-.342a1.857 1.857 0 01.09-1.062c.065.025.197.08.261.106-.028.238-.22.679.132.765a4.099 4.099 0 001.856-.076c-.014-.192-.03-.386-.041-.577l.352-.172c.065.264-.048.66.244.808.397.059.803.04 1.193-.054a2.326 2.326 0 00-.936-1.04c.051-.217.044-.537.32-.602zm7.065.04c.432-.176.89-.272 1.334-.415l-.1.445c-.347.101-.694.21-1.042.31.4.268.694.668.83 1.13a.637.637 0 01-.432.6 2.368 2.368 0 01-1.101.048 1.217 1.217 0 01-.82.943 1.817 1.817 0 01-.596-.195l.079-.272a.812.812 0 001.011-.548 4.55 4.55 0 00-.257-.768l.329-.264c.118.228.112.621.432.666.338.047.682.008 1.001-.113-.08-.454-.576-.702-.878-1.025.009-.188.012-.441.21-.542zm-22.233-.243c.126.068.252.138.38.205l-.207.344-.336-.228c.056-.108.11-.217.163-.322zm18.61-.01l.374.234a81.5 81.5 0 00-.207.317l-.339-.214c.058-.113.116-.225.172-.337zm-16.602.137c.132.085.26.17.391.256l-.228.356a63.063 63.063 0 00-.38-.242c.07-.124.144-.247.217-.37z" fill="#003C8F"/>
    <path d="M11.165 45.87c.132.077.263.155.393.233l-.211.374c-.132-.087-.264-.17-.394-.255l.213-.352zm5.195.493l.21-.363c.131.076.261.154.393.23.033-.062.1-.19.134-.25.13.086.262.17.394.254-.073.117-.144.233-.219.35l-.388-.222-.149.24-.376-.24zm18.816-.355l.398.22.158-.243c.125.086.247.178.376.262-.078.113-.154.226-.233.338a44.455 44.455 0 00-.366-.22l-.163.234a80.7 80.7 0 00-.377-.229l.207-.362zm2.782.06l.388.231c-.072.124-.144.249-.212.373l-.392-.24c.071-.122.144-.242.216-.364zm-17.049.094a1.327 1.327 0 01.768 1.284c-.116.543-.808.596-1.253.48-.315-.15-.158-.55-.16-.816l.24.048.02.304c.297.048.603.031.893-.05a1.62 1.62 0 00-.658-.82c.049-.145.102-.288.15-.43zm9.034.008c.134.073.268.146.4.22l-.21.38a75.826 75.826 0 01-.385-.228l-.153.238-.384-.231c.072-.123.144-.246.213-.368l.39.242a6.11 6.11 0 00.129-.252zm-22.92.063c.14.074.277.154.413.237l-.22.365-.388-.227.195-.375zm16.415 1.02a1.155 1.155 0 01.669-.915c.23-.074.412.102.584.22l-.204.323c-.3-.252-.624.008-.755.3.288.072.567.175.832.309a.627.627 0 01-.167.757.637.637 0 01-.246.126c-.489.174-1.152.285-1.56-.102-.296-.441-.097-.999.045-1.462.069.02.205.06.273.078a1.71 1.71 0 00-.09.958c.168.266.543.197.815.197.212-.038.508-.025.616-.251-.291-.123-.867-.093-.812-.538zm-4.714-.575c.117-.086.235-.17.355-.253.164.428.333.974-.037 1.352a1.262 1.262 0 01-1.265 0 .696.696 0 01-.885.009.866.866 0 01-.704.131c-.035.18-.105.352-.207.504-.382.249-.84.352-1.292.29a.71.71 0 01-.639-.422 2.045 2.045 0 01.157-1.294l.245.086c-.04.336-.24.719-.028 1.036a1.762 1.762 0 001.416-.048 8.26 8.26 0 00-.17-1.117c.115-.07.23-.143.345-.21.087.27.072.773.48.732.319 0 .274-.376.331-.585l.304-.012c.01.177-.075.378.013.542.144.053.3.065.45.034a27.15 27.15 0 00-.066-.633l.364-.194c.042.255-.009.55.15.772.298.104.624.097.918-.02a6.14 6.14 0 00-.235-.7z" fill="#003C8F"/>
    <path d="M36.148 46.68c.117-.074.207-.222.36-.217.148.42.3.948 0 1.338a.612.612 0 01-.817-.01c-.122-.125-.24.076-.338.13a.675.675 0 01-.665-.157 1.061 1.061 0 01-.894.15 1.263 1.263 0 01-.765.92 1.148 1.148 0 01-.63-.175l.035-.276c.199-.003.424.081.604-.037.186-.126.34-.293.45-.49a13.06 13.06 0 00-.274-.791l.301-.262c.148.273.197.753.624.678.381.069.473-.319.528-.6.072 0 .216-.004.288-.007a1.945 1.945 0 00-.014.476.322.322 0 00.515.007c.044-.158.078-.319.103-.481l.293.003-.043.506a.87.87 0 00.556.07 5.923 5.923 0 00-.218-.776zm-28.401.075c.124-.065.246-.133.368-.2.096.523.304 1.122-.004 1.617a1.539 1.539 0 01-1.135.353.846.846 0 01-.82-.368 1.992 1.992 0 01.132-1.353c.06.02.182.058.24.078-.024.338-.22.713-.032 1.032a1.722 1.722 0 001.428-.035 7.705 7.705 0 00-.177-1.124zm34.327.003a.406.406 0 01.655.13.933.933 0 01.048.881c-.21.403-.78.15-1.034-.084a.757.757 0 01-.794.226 1.232 1.232 0 01-.786.926 1.348 1.348 0 01-.632-.19l.086-.27a.85.85 0 001.026-.531 6.344 6.344 0 00-.279-.78l.332-.274c.12.238.122.663.468.682.463.04.63-.453.907-.718m-.092.584c.175.117.376.19.585.214a.797.797 0 00-.208-.507c-.19-.027-.268.178-.375.293h-.002zm-29.476.832l.387.256c-.075.116-.147.233-.222.35a33.521 33.521 0 00-.387-.23l.222-.376zm-3.128.381l.208-.369.358.229a1.03 1.03 0 01.209-.223c.12.073.236.152.348.238l-.216.348-.381-.228-.15.247-.376-.242z" fill="#003C8F"/>
  </g>
</svg>
